<?xml version="1.0" standalone="no"?>
<!DOCTYPE svg PUBLIC "-//W3C//DTD SVG 20010904//EN"
 "http://www.w3.org/TR/2001/REC-SVG-20010904/DTD/svg10.dtd">
<svg version="1.0" xmlns="http://www.w3.org/2000/svg"
 width="225.000000pt" height="225.000000pt" viewBox="0 0 225.000000 225.000000"
 preserveAspectRatio="xMidYMid meet">

<g transform="translate(0.000000,225.000000) scale(0.100000,-0.100000)"
fill="#000000" stroke="none">
<path d="M987 1862 c-22 -24 -21 -34 3 -62 27 -31 26 -89 -1 -124 -18 -22 -28
-26 -75 -26 -36 0 -61 5 -70 15 -33 33 -81 6 -70 -39 9 -35 39 -41 75 -15 24
17 39 21 76 17 25 -3 54 -13 65 -23 40 -37 93 23 56 64 -23 25 -24 106 -2 130
20 22 20 45 0 65 -20 21 -37 20 -57 -2z"/>
<path d="M260 1005 c0 -37 4 -65 10 -65 6 0 10 14 10 30 0 25 4 30 25 30 21 0
25 -5 25 -30 0 -16 5 -30 10 -30 6 0 10 28 10 65 0 37 -4 65 -10 65 -5 0 -10
-11 -10 -25 0 -20 -5 -25 -25 -25 -20 0 -25 5 -25 25 0 14 -4 25 -10 25 -6 0
-10 -28 -10 -65z"/>
<path d="M386 1048 c-23 -33 -19 -64 10 -87 33 -26 58 -27 84 -1 25 25 26 72
2 93 -27 25 -78 22 -96 -5z m84 -19 c14 -25 8 -44 -19 -59 -17 -8 -24 -7 -41
10 -24 24 -25 34 -4 54 22 22 51 20 64 -5z"/>
<path d="M527 1064 c-4 -4 -7 -17 -7 -30 0 -16 9 -25 30 -33 43 -14 39 -35 -5
-27 -21 4 -35 3 -35 -3 0 -17 40 -33 67 -27 34 9 29 56 -9 74 -38 18 -36 35 3
27 24 -5 30 -4 27 6 -5 15 -59 25 -71 13z"/>
<path d="M622 1008 c3 -59 19 -83 26 -39 2 13 12 21 30 23 19 2 28 10 30 26 5
33 -15 52 -55 52 l-34 0 3 -62z m63 22 c0 -8 -8 -16 -17 -18 -13 -2 -18 3 -18
18 0 15 5 20 18 18 9 -2 17 -10 17 -18z"/>
<path d="M730 1005 c0 -37 4 -65 10 -65 6 0 10 28 10 65 0 37 -4 65 -10 65 -6
0 -10 -28 -10 -65z"/>
<path d="M770 1061 c0 -5 8 -11 17 -13 14 -2 18 -14 18 -52 0 -30 5 -51 13
-53 9 -3 12 11 12 51 0 43 3 56 15 56 8 0 15 5 15 10 0 6 -20 10 -45 10 -25 0
-45 -4 -45 -9z"/>
<path d="M881 1010 c-23 -62 -21 -91 3 -57 17 22 52 22 65 0 20 -37 24 1 6 55
-27 78 -46 79 -74 2z m49 -6 c0 -8 -7 -14 -15 -14 -17 0 -18 2 -9 24 7 18 24
12 24 -10z"/>
<path d="M990 1005 l0 -65 35 0 c24 0 35 5 35 15 0 9 -10 15 -26 15 -25 0 -26
2 -22 50 2 35 -1 50 -9 50 -9 0 -13 -20 -13 -65z"/>
<path d="M1130 1005 c0 -37 4 -65 10 -65 6 0 10 11 10 25 0 32 9 32 36 -2 12
-16 26 -25 30 -21 4 4 1 15 -6 23 -11 13 -11 20 0 39 19 36 -1 66 -45 66 l-35
0 0 -65z m58 22 c2 -12 -3 -17 -17 -17 -15 0 -21 6 -21 21 0 25 33 22 38 -4z"/>
<path d="M1240 1004 l0 -65 35 3 c41 3 48 21 10 26 -33 4 -33 32 0 32 14 0 25
5 25 10 0 6 -11 10 -25 10 -16 0 -25 6 -25 15 0 10 10 15 30 15 17 0 30 5 30
10 0 6 -18 10 -40 10 l-40 0 0 -66z"/>
<path d="M1347 1052 c-37 -41 -6 -112 48 -112 28 0 65 32 65 55 0 10 -11 15
-35 15 -39 0 -48 -17 -12 -22 l22 -3 -22 -13 c-18 -10 -25 -9 -44 7 -21 17
-22 22 -11 46 11 25 15 26 54 20 39 -7 41 -6 29 9 -18 22 -74 21 -94 -2z"/>
<path d="M1480 1005 c0 -37 4 -65 10 -65 6 0 10 28 10 65 0 37 -4 65 -10 65
-6 0 -10 -28 -10 -65z"/>
<path d="M1536 1048 c-33 -46 -4 -108 49 -108 55 0 87 77 47 113 -27 25 -78
22 -96 -5z m86 -24 c11 -23 10 -29 -11 -45 -38 -31 -84 8 -61 52 16 29 58 25
72 -7z"/>
<path d="M1670 1005 c0 -72 17 -90 22 -23 l3 42 29 -42 c16 -23 33 -42 37 -42
5 0 9 29 9 65 0 51 -3 65 -15 65 -10 0 -15 -10 -15 -32 l-1 -33 -27 33 c-15
18 -30 32 -34 32 -5 0 -8 -29 -8 -65z"/>
<path d="M1805 1010 c-18 -58 -14 -93 6 -57 13 22 48 22 65 0 23 -32 24 -8 3
55 -28 83 -49 84 -74 2z m55 -12 c0 -5 -7 -8 -15 -8 -15 0 -20 21 -8 33 7 7
23 -11 23 -25z"/>
<path d="M1920 1005 l0 -65 35 0 c24 0 35 5 35 15 0 9 -9 15 -25 15 -23 0 -25
3 -25 50 0 28 -4 50 -10 50 -6 0 -10 -28 -10 -65z"/>
<path d="M490 814 l0 -67 42 6 c64 9 87 55 52 105 -11 16 -25 22 -55 22 l-39
0 0 -66z m74 30 c29 -29 12 -64 -31 -64 -20 0 -23 5 -23 40 0 33 3 40 19 40
11 0 27 -7 35 -16z"/>
<path d="M620 815 l0 -65 41 0 c47 0 51 23 5 28 -32 4 -30 25 2 30 30 5 28 22
-3 22 -16 0 -25 6 -25 15 0 10 10 15 30 15 17 0 30 5 30 10 0 6 -18 10 -40 10
l-40 0 0 -65z"/>
<path d="M777 862 c-25 -27 -22 -78 5 -96 42 -29 89 -15 103 32 6 20 3 22 -29
22 -20 0 -36 -4 -36 -10 0 -5 10 -10 23 -10 21 -1 21 -1 4 -14 -10 -8 -27 -12
-38 -9 -24 7 -36 48 -19 68 14 17 46 20 55 5 3 -5 12 -7 21 -3 11 4 12 9 3 19
-17 20 -73 17 -92 -4z"/>
<path d="M900 832 c0 -62 26 -91 68 -76 25 9 27 15 30 67 2 35 -1 57 -8 57 -5
0 -10 -20 -10 -44 0 -44 -19 -74 -40 -61 -5 3 -10 28 -10 56 0 37 -4 49 -15
49 -11 0 -15 -12 -15 -48z"/>
<path d="M1031 818 c-21 -63 -20 -87 3 -55 16 21 66 23 66 2 0 -8 6 -15 14
-15 11 0 10 12 -7 65 -28 86 -48 87 -76 3z m52 2 c4 -15 0 -20 -13 -20 -13 0
-17 5 -13 20 3 11 9 20 13 20 4 0 10 -9 13 -20z"/>
<path d="M1140 814 c0 -48 3 -65 13 -62 6 3 13 14 15 26 4 29 16 28 32 -3 15
-28 64 -35 74 -10 7 20 46 19 62 -2 24 -33 26 -5 3 56 -29 80 -48 81 -73 1
-10 -33 -21 -60 -25 -60 -13 0 -31 39 -21 45 6 3 10 19 10 35 0 30 -14 40 -61
40 l-29 0 0 -66z m68 23 c2 -12 -3 -17 -17 -17 -15 0 -21 6 -21 21 0 25 33 22
38 -4z m112 -29 c0 -5 -7 -8 -15 -8 -15 0 -20 21 -8 33 7 7 23 -11 23 -25z"/>
<path d="M1380 816 c0 -66 0 -66 28 -66 51 0 64 19 55 75 -8 49 -9 50 -46 53
l-37 3 0 -65z m60 29 c0 -8 -9 -15 -20 -15 -11 0 -20 7 -20 15 0 8 9 15 20 15
11 0 20 -7 20 -15z m5 -50 c0 -5 -10 -11 -22 -13 -16 -2 -23 2 -23 13 0 11 7
15 23 13 12 -2 22 -7 22 -13z"/>
<path d="M1490 815 c0 -37 4 -65 10 -65 6 0 10 28 10 65 0 37 -4 65 -10 65 -6
0 -10 -28 -10 -65z"/>
<path d="M1540 816 c0 -37 4 -66 10 -66 6 0 10 11 10 25 0 32 9 32 36 -2 12
-16 26 -25 30 -21 4 4 1 15 -6 23 -11 13 -11 20 1 41 18 35 2 58 -45 62 l-36
3 0 -65z m60 24 c0 -13 -7 -20 -20 -20 -13 0 -20 7 -20 20 0 13 7 20 20 20 13
0 20 -7 20 -20z"/>
<path d="M1661 820 c-23 -62 -21 -91 3 -57 17 22 52 22 65 0 21 -38 24 1 5 55
-28 78 -45 78 -73 2z m49 -6 c0 -8 -7 -14 -15 -14 -17 0 -18 2 -9 24 7 18 24
12 24 -10z"/>
</g>
</svg>
