<?xml version="1.0" standalone="no"?>
<!DOCTYPE svg PUBLIC "-//W3C//DTD SVG 20010904//EN"
 "http://www.w3.org/TR/2001/REC-SVG-20010904/DTD/svg10.dtd">
<svg version="1.0" xmlns="http://www.w3.org/2000/svg"
 width="1600.000000pt" height="900.000000pt" viewBox="0 0 1600.000000 900.000000"
 preserveAspectRatio="xMidYMid meet">

<g transform="translate(0.000000,900.000000) scale(0.100000,-0.100000)"
fill="#000000" stroke="none">
<path d="M8930 5837 c-41 -61 -76 -115 -78 -119 -2 -5 23 -8 56 -8 l60 0 99
108 c54 59 101 109 106 110 4 2 7 8 7 13 0 5 -39 9 -87 9 l-88 0 -75 -113z"/>
<path d="M4820 4725 l0 -926 98 3 97 3 3 363 2 362 126 0 c115 0 187 9 239 30
11 4 33 13 48 19 49 19 123 98 150 159 14 31 31 86 36 122 13 79 14 362 2 445
-26 174 -123 291 -271 328 -25 6 -154 12 -287 14 l-243 4 0 -926z m447 733
c66 -16 111 -52 137 -107 19 -42 21 -63 21 -261 0 -245 -9 -281 -80 -336 -38
-28 -41 -29 -182 -32 l-143 -3 0 375 0 376 100 0 c55 0 121 -5 147 -12z"/>
<path d="M5720 4727 l0 -927 2773 2 2772 3 3 918 2 917 -2392 0 c-1316 0
-2565 3 -2775 7 l-383 6 0 -926z m1605 813 c114 -51 176 -152 197 -321 15
-122 16 -120 -89 -117 l-88 3 -6 80 c-4 44 -12 94 -19 110 -26 68 -89 106
-174 104 -70 -1 -124 -32 -156 -89 -22 -39 -25 -57 -25 -140 0 -83 3 -102 27
-150 37 -74 84 -127 204 -225 266 -220 329 -322 328 -535 0 -157 -38 -258
-127 -337 -65 -57 -132 -77 -252 -77 -126 0 -188 21 -260 86 -85 78 -130 213
-123 369 l3 64 86 3 86 3 5 -98 c7 -144 44 -214 127 -242 80 -26 175 -3 220
55 28 36 43 95 43 174 0 129 -56 219 -227 361 -193 160 -267 246 -307 356 -43
118 -33 316 22 424 29 55 93 117 149 142 97 44 255 43 356 -3z m864 -42 c6
-35 22 -119 36 -188 57 -298 238 -1244 256 -1335 10 -55 19 -103 19 -107 0 -7
-189 -12 -190 -5 -1 1 -15 76 -33 167 l-32 165 -212 3 -213 2 -5 -22 c-3 -13
-18 -88 -33 -168 l-27 -145 -88 -3 c-101 -3 -97 -9 -72 104 8 38 28 143 45
234 17 91 40 210 51 265 10 55 60 314 109 575 50 261 93 485 95 498 5 22 8 22
143 22 l138 0 13 -62z m573 -630 c3 -683 3 -694 24 -739 30 -64 79 -99 148
-106 94 -10 165 30 202 112 5 11 11 335 14 720 l5 700 84 3 c61 2 87 -1 92
-10 12 -18 11 -1233 -1 -1343 -13 -128 -42 -196 -109 -264 -77 -78 -131 -96
-276 -96 -100 1 -115 4 -167 29 -66 33 -131 99 -159 162 -47 104 -49 139 -49
845 0 366 3 669 7 672 3 4 46 7 94 7 l88 0 3 -692z m1284 652 c84 -43 135
-105 167 -205 22 -69 22 -79 22 -610 0 -537 0 -540 -23 -605 -30 -85 -67 -138
-125 -177 -85 -57 -128 -64 -394 -61 l-238 3 -3 835 c-1 459 0 841 3 848 4 11
54 13 264 10 l258 -3 69 -35z m1002 -47 l-3 -88 -252 -3 -253 -2 0 -285 0
-285 205 0 205 0 0 -90 0 -90 -205 0 -205 0 0 -295 0 -295 243 0 c133 0 248
-4 255 -9 9 -5 12 -30 10 -87 l-3 -79 -344 -3 c-269 -2 -346 1 -353 10 -9 16
-11 1672 -1 1681 3 4 163 7 355 7 l349 0 -3 -87z m-4868 -16 c64 -17 96 -40
122 -90 21 -39 23 -55 23 -202 0 -152 -1 -162 -25 -204 -41 -74 -72 -85 -237
-89 l-143 -4 0 294 c0 162 3 298 7 301 11 12 205 7 253 -6z m61 -800 c91 -40
119 -118 119 -331 0 -161 -7 -204 -43 -257 -43 -64 -74 -74 -244 -78 l-153 -3
0 339 c0 187 3 343 8 347 13 15 274 0 313 -17z"/>
<path d="M8002 5198 c-84 -433 -152 -799 -152 -812 0 -14 23 -16 180 -16 147
0 180 3 180 14 0 14 -25 146 -90 476 -21 107 -48 247 -60 310 -13 63 -26 121
-29 128 -4 7 -17 -38 -29 -100z"/>
<path d="M9650 4709 l0 -671 143 4 c165 4 188 13 229 96 l23 47 0 525 0 525
-23 46 c-15 28 -40 56 -65 72 -39 26 -47 27 -174 27 l-133 0 0 -671z"/>
<path d="M5986 3712 c-3 -3 -6 -11 -6 -18 0 -9 15 -12 48 -11 61 3 66 28 5 32
-23 2 -44 1 -47 -3z"/>
<path d="M9407 3713 c-20 -19 -4 -33 38 -33 25 0 45 5 45 10 0 6 0 13 0 16 0
9 -75 15 -83 7z"/>
<path d="M10823 3705 c-3 -9 -3 -19 1 -22 7 -7 36 16 36 28 0 15 -30 10 -37
-6z"/>
<path d="M4995 3662 c-3 -3 -5 -57 -5 -119 0 -108 1 -115 25 -138 13 -14 31
-25 40 -25 9 0 27 11 40 25 24 23 25 30 25 138 0 62 -3 116 -6 120 -3 3 -12 3
-20 0 -11 -4 -14 -30 -14 -112 0 -111 -10 -142 -37 -120 -9 8 -13 43 -13 124
0 93 -3 112 -15 112 -8 0 -17 -3 -20 -5z"/>
<path d="M5192 3662 c-9 -6 -12 -41 -10 -138 3 -113 5 -129 21 -132 15 -3 17
6 17 84 0 48 2 85 5 82 3 -3 16 -40 29 -84 19 -64 27 -80 45 -82 21 -3 21 -1
21 132 0 129 -1 136 -20 136 -18 0 -20 -7 -21 -67 l-1 -68 -22 70 c-21 68 -36
84 -64 67z"/>
<path d="M5396 3663 c-3 -4 -6 -66 -6 -140 l0 -133 45 0 c72 0 85 20 85 134 0
111 -12 133 -77 140 -22 3 -44 2 -47 -1z m82 -141 c-3 -82 -4 -87 -25 -90 -22
-3 -23 -1 -23 91 0 51 3 97 6 100 4 3 15 2 26 -4 17 -9 18 -20 16 -97z"/>
<path d="M5633 3663 c-13 -3 -23 -12 -23 -21 -1 -9 -9 -70 -19 -134 -17 -112
-17 -118 -1 -118 11 0 20 10 24 25 5 18 13 25 31 25 18 0 26 -7 31 -25 4 -16
13 -25 26 -25 22 0 21 9 -11 184 -17 92 -20 96 -58 89z m26 -155 c1 -19 -4
-28 -14 -28 -16 0 -20 45 -8 90 l7 25 7 -30 c4 -16 7 -42 8 -57z"/>
<path d="M5799 3651 c-19 -15 -24 -30 -27 -85 -7 -103 4 -149 39 -175 24 -18
32 -20 44 -9 8 7 21 19 30 26 8 7 15 29 15 48 0 28 -4 35 -17 32 -11 -2 -19
-14 -21 -31 -2 -19 -9 -27 -23 -27 -18 0 -20 6 -17 98 2 77 6 97 18 97 8 0 17
-11 20 -25 3 -14 14 -26 23 -28 25 -5 23 52 -3 78 -25 25 -51 25 -81 1z"/>
<path d="M6020 3661 c-23 -6 -26 -15 -42 -111 -21 -135 -22 -160 -3 -160 8 0
18 11 21 26 5 20 12 24 33 22 18 -2 27 -10 29 -25 4 -24 42 -34 42 -10 -1 40
-39 250 -46 256 -5 4 -20 5 -34 2z m19 -125 c7 -38 6 -49 -6 -53 -22 -9 -26 2
-18 57 4 28 9 49 11 47 2 -2 8 -25 13 -51z"/>
<path d="M6182 3654 c-20 -14 -22 -23 -22 -124 0 -99 2 -111 22 -130 27 -25
49 -25 79 -1 23 18 24 26 24 126 0 100 -1 108 -24 126 -28 23 -49 24 -79 3z
m56 -127 c3 -92 2 -97 -18 -97 -19 0 -20 6 -20 93 0 52 3 97 7 101 19 19 28
-8 31 -97z"/>
<path d="M6455 3662 c-3 -3 -5 -65 -5 -139 0 -126 1 -133 20 -133 17 0 20 7
20 49 0 45 2 49 27 56 16 4 34 11 40 17 15 12 17 106 4 127 -9 14 -96 33 -106
23z m73 -86 c-2 -29 -8 -42 -20 -44 -15 -3 -18 4 -18 41 0 49 5 58 26 50 11
-4 14 -18 12 -47z"/>
<path d="M6660 3647 c-9 -21 -40 -211 -40 -242 0 -25 30 -17 40 11 13 33 53
30 58 -3 2 -15 10 -23 23 -23 13 0 19 7 19 23 0 29 -37 237 -43 243 -2 3 -14
7 -26 9 -15 3 -25 -2 -31 -18z m44 -124 c6 -39 4 -43 -15 -43 -19 0 -21 4 -15
38 3 20 6 48 7 62 0 23 1 23 8 5 5 -11 11 -39 15 -62z"/>
<path d="M6853 3662 l-33 -3 0 -135 c0 -127 1 -134 20 -134 17 0 20 7 20 50 0
37 4 52 16 57 22 8 34 -14 34 -64 0 -36 3 -43 20 -43 17 0 20 7 20 53 0 29 -5
58 -11 64 -8 8 -8 17 0 31 13 24 14 81 3 99 -11 17 -52 29 -89 25z m55 -85
c-2 -24 -8 -32 -23 -32 -22 0 -30 24 -21 61 6 21 9 23 27 14 15 -9 19 -19 17
-43z"/>
<path d="M7053 3658 c-4 -7 -17 -70 -29 -140 -19 -122 -19 -128 -2 -128 11 0
20 10 24 26 5 20 12 24 33 22 18 -2 27 -10 29 -25 4 -24 42 -34 42 -10 -1 18
-39 250 -42 252 -14 12 -48 14 -55 3z m36 -140 c1 -29 -3 -38 -15 -38 -14 0
-15 7 -10 38 3 20 6 46 7 57 l0 20 9 -20 c5 -11 9 -37 9 -57z"/>
<path d="M7332 3662 c-9 -3 -12 -43 -12 -139 l0 -135 56 4 c32 3 60 11 65 19
5 8 7 37 4 64 -5 50 -5 60 -2 127 0 21 -2 40 -6 44 -9 9 -90 21 -105 16z m72
-57 c9 -23 -6 -55 -25 -55 -15 0 -19 7 -19 33 0 19 3 36 6 40 9 8 32 -2 38
-18z m-5 -99 c20 -24 10 -70 -16 -74 -21 -3 -23 1 -23 36 0 52 15 67 39 38z"/>
<path d="M7717 3663 c-4 -3 -7 -66 -7 -140 0 -125 1 -133 20 -133 17 0 19 8
22 88 l3 87 24 -88 c21 -78 26 -88 45 -85 20 3 21 9 24 118 3 131 -1 162 -23
154 -11 -5 -15 -23 -15 -72 0 -74 -10 -73 -30 3 -7 28 -17 56 -23 63 -10 13
-30 16 -40 5z"/>
<path d="M7952 3661 c-5 -3 -17 -58 -26 -121 -10 -63 -20 -123 -22 -132 -4
-13 0 -18 15 -18 13 0 21 8 23 23 2 15 11 23 29 25 21 2 28 -2 33 -22 4 -17
13 -26 26 -26 24 0 24 -12 0 135 -11 66 -20 123 -20 126 0 9 -47 17 -58 10z
m37 -148 c1 -23 -4 -33 -14 -33 -16 0 -19 27 -8 81 7 33 7 33 14 9 4 -14 7
-40 8 -57z"/>
<path d="M8423 3662 c-23 -3 -23 -6 -23 -138 l0 -135 58 3 c43 2 57 7 57 18 0
10 -12 16 -38 18 -37 3 -38 4 -35 40 3 32 7 37 31 40 19 2 27 9 27 23 0 15 -7
19 -31 19 -29 0 -30 2 -27 38 3 34 6 37 37 42 30 4 57 29 34 31 -36 3 -72 3
-90 1z"/>
<path d="M8695 3654 c-17 -12 -21 -29 -24 -105 -4 -108 2 -134 34 -155 21 -14
30 -14 54 -4 33 13 41 33 41 103 0 46 -1 47 -30 47 -23 0 -30 -4 -30 -20 0
-11 5 -20 11 -20 6 0 9 -14 7 -32 -2 -25 -8 -33 -23 -33 -18 0 -20 8 -23 85
-1 47 2 91 7 99 14 21 41 5 41 -24 0 -18 5 -25 20 -25 35 0 22 71 -16 89 -32
14 -45 14 -69 -5z"/>
<path d="M8893 3662 l-33 -3 0 -135 0 -134 60 0 c53 0 60 2 60 20 0 16 -7 20
-35 20 -34 0 -35 1 -35 39 0 36 3 40 28 43 16 2 27 9 27 18 0 9 -11 16 -27 18
-25 3 -28 7 -28 43 0 38 1 39 35 39 24 0 35 5 35 15 0 8 -6 15 -12 16 -7 0
-20 1 -28 3 -8 1 -30 0 -47 -2z"/>
<path d="M9062 3654 c-16 -11 -22 -25 -22 -55 0 -32 7 -47 40 -83 43 -47 53
-86 21 -86 -10 0 -21 9 -24 20 -3 11 -13 20 -22 20 -28 0 -15 -58 18 -78 25
-16 29 -15 55 0 21 13 28 25 30 56 3 34 -3 46 -37 86 -41 48 -51 79 -29 92 7
4 18 -2 26 -14 19 -30 42 -28 42 2 0 26 -33 56 -60 56 -9 0 -26 -7 -38 -16z"/>
<path d="M9258 3662 c-51 -3 -69 -28 -25 -34 21 -3 22 -7 25 -120 2 -110 4
-118 22 -118 19 0 20 7 20 116 0 107 1 116 20 121 25 7 27 39 3 39 -10 0 -39
-2 -65 -4z"/>
<path d="M9443 3662 c-26 -4 -28 -9 -48 -132 -20 -125 -19 -142 3 -138 9 2 18
14 20 26 5 32 55 28 60 -5 4 -25 42 -33 42 -9 0 31 -41 251 -48 256 -4 3 -17
4 -29 2z m20 -139 c4 -38 3 -43 -14 -43 -21 0 -23 17 -12 84 7 45 16 31 26
-41z"/>
<path d="M9602 3654 c-20 -14 -22 -23 -22 -124 0 -83 3 -112 15 -124 42 -41
99 -21 111 39 12 65 1 181 -20 204 -23 25 -53 27 -84 5z m56 -119 c3 -99 -1
-117 -23 -109 -12 5 -15 25 -15 98 0 51 3 96 7 100 19 19 28 -8 31 -89z"/>
<path d="M9874 3661 c-2 -2 -4 -64 -4 -138 l0 -133 55 0 c48 0 55 2 55 20 0
16 -7 20 -35 20 -34 0 -35 1 -35 40 0 38 2 40 30 40 23 0 30 4 30 20 0 16 -7
20 -31 20 -29 0 -30 2 -27 38 3 34 6 37 36 40 20 2 32 9 32 18 0 8 -4 14 -10
15 -32 4 -92 3 -96 0z"/>
<path d="M10050 3531 c0 -119 2 -141 15 -141 12 0 15 16 15 82 0 45 2 79 5 76
3 -3 11 -39 18 -79 11 -63 16 -74 34 -77 18 -3 21 4 28 54 12 97 24 108 24 22
1 -71 3 -78 21 -78 19 0 20 7 20 134 0 122 -2 134 -19 139 -36 9 -49 -10 -56
-81 -10 -103 -21 -106 -35 -8 -9 56 -18 86 -26 86 -7 0 -19 3 -28 6 -14 5 -16
-10 -16 -135z"/>
<path d="M10405 3650 c-32 -35 -23 -84 24 -135 43 -47 49 -66 28 -84 -15 -12
-37 3 -37 26 0 15 -26 18 -34 4 -4 -5 -2 -21 3 -35 28 -71 121 -48 121 30 0
26 -9 45 -41 79 -27 30 -39 51 -37 66 4 30 28 37 35 10 7 -28 43 -28 43 -1 0
27 -35 60 -63 60 -13 0 -32 -9 -42 -20z"/>
<path d="M4820 3525 c0 -127 1 -135 19 -135 17 0 20 8 23 53 3 48 5 52 31 55
36 4 39 42 3 42 -19 0 -26 7 -31 30 -8 37 6 58 42 62 15 2 28 9 31 16 3 9 -13
12 -57 12 l-61 0 0 -135z"/>
<path d="M7210 3525 c0 -128 1 -135 20 -135 19 0 20 7 20 135 0 128 -1 135
-20 135 -19 0 -20 -7 -20 -135z"/>
<path d="M7525 3525 c-19 -125 -19 -135 -4 -135 10 0 20 11 23 26 5 20 12 25
34 22 19 -2 28 -9 30 -25 2 -15 10 -23 23 -23 23 0 23 1 4 115 -8 50 -18 105
-21 123 -4 28 -9 32 -37 32 l-32 0 -20 -135z m64 -7 c1 -27 -3 -38 -14 -38
-16 0 -18 15 -8 75 5 31 8 35 14 20 4 -11 8 -37 8 -57z"/>
<path d="M8200 3525 l0 -135 48 0 c80 0 87 11 87 133 0 127 -6 137 -81 137
l-54 0 0 -135z m90 -1 c0 -87 -1 -94 -20 -94 -19 0 -20 7 -20 99 0 94 1 99 20
94 18 -5 20 -14 20 -99z"/>
<path d="M10586 3543 c-10 -65 -20 -126 -23 -135 -3 -13 1 -18 16 -18 13 0 21
8 23 23 2 15 11 23 29 25 21 2 28 -2 33 -22 4 -17 13 -26 26 -26 24 0 24 -12
0 135 -11 66 -20 123 -20 128 0 4 -15 7 -33 7 l-33 0 -18 -117z m63 -30 c1
-23 -4 -33 -14 -33 -16 0 -20 45 -8 90 l7 25 7 -25 c4 -14 7 -40 8 -57z"/>
<path d="M10770 3536 c0 -118 1 -126 22 -140 30 -21 50 -20 76 4 20 19 22 30
22 140 0 113 -1 120 -20 120 -19 0 -20 -7 -20 -115 0 -108 -1 -115 -20 -115
-19 0 -20 7 -20 115 0 108 -1 115 -20 115 -19 0 -20 -7 -20 -124z"/>
<path d="M10960 3524 l0 -136 56 4 c33 3 60 11 65 19 5 8 9 60 9 116 0 121 -7
133 -81 133 l-49 0 0 -136z m79 92 c8 -9 11 -45 9 -98 -3 -77 -4 -83 -25 -86
-22 -3 -23 -1 -23 91 0 51 3 97 7 100 10 11 19 8 32 -7z"/>
<path d="M11150 3525 l0 -135 60 0 c53 0 60 2 60 20 0 16 -7 20 -35 20 -34 0
-35 1 -35 39 0 36 3 40 28 43 36 4 36 32 -1 36 -26 3 -28 6 -25 40 3 34 6 37
36 40 20 2 32 9 32 18 0 11 -15 14 -60 14 l-60 0 0 -135z"/>
<path d="M5846 3361 c-4 -6 -16 -11 -27 -11 -11 0 -17 -4 -14 -10 8 -13 52
-13 61 1 3 6 2 15 -4 21 -6 6 -12 6 -16 -1z"/>
</g>
</svg>
